<svg id="Layer_1" data-name="Layer 1" xmlns="http://www.w3.org/2000/svg" viewBox="0 0 64 64">
  <defs>
    <style>
      .cls-1{fill:#fff;}.cls-2{fill:gray;}.cls-3{fill:#ffd121;}.cls-4{fill:#4d4d4d;}
    </style>
  </defs>
  <path class="cls-1" d="M32 12L0 64h64L32 12z"/>
  <path class="cls-2" d="M32 15.82L60.42 62H3.58L32 15.82M32 12L0 64h64L32 12z"/>
  <path class="cls-3" d="M10.74 58L32 23.45 53.26 58H10.74z"/>
  <path class="cls-4" d="M26.15 49.61v4.82h-3.28V40.36h5.71a5.84 5.84 0 0 1 4 1.28 4.55 4.55 0 0 1 0 6.7 5.87 5.87 0 0 1-4 1.27zm0-2.51h2.44a2.13 2.13 0 0 0 1.62-.58 2.09 2.09 0 0 0 .56-1.5 2.17 2.17 0 0 0-.56-1.54 2.1 2.1 0 0 0-1.62-.6h-2.44z"/>
  <path class="cls-4" d="M44 52.49A6.07 6.07 0 0 1 41.87 54a8 8 0 0 1-3.42.65A5.78 5.78 0 0 1 34.21 53a5.59 5.59 0 0 1-1.63-4.17v-2.9a5.67 5.67 0 0 1 1.59-4.16 5.5 5.5 0 0 1 4.09-1.61 5.8 5.8 0 0 1 4.07 1.26 5.07 5.07 0 0 1 1.54 3.43v.06h-3.08a2.92 2.92 0 0 0-.72-1.67 2.3 2.3 0 0 0-1.7-.56 2.21 2.21 0 0 0-1.84.9 3.72 3.72 0 0 0-.7 2.33v3a3.78 3.78 0 0 0 .69 2.36 2.29 2.29 0 0 0 1.92.89 5.41 5.41 0 0 0 1.42-.16 2.27 2.27 0 0 0 .81-.39v-2.24h-2.21V47.2H44z"/>
  <path class="cls-1" d="M24.57 48.21V53H21.3V39H27a5.84 5.84 0 0 1 4 1.28 4.55 4.55 0 0 1 0 6.7 5.87 5.87 0 0 1-4 1.27zm0-2.51H27a2.13 2.13 0 0 0 1.62-.58 2.09 2.09 0 0 0 .56-1.5 2.17 2.17 0 0 0-.56-1.54 2.1 2.1 0 0 0-1.62-.6h-2.43z"/>
  <path class="cls-1" d="M42.38 51.09a6.07 6.07 0 0 1-2.08 1.5 8 8 0 0 1-3.42.65 5.78 5.78 0 0 1-4.24-1.6A5.59 5.59 0 0 1 31 47.47v-2.94a5.67 5.67 0 0 1 1.59-4.16 5.5 5.5 0 0 1 4.09-1.61A5.8 5.8 0 0 1 40.76 40a5.07 5.07 0 0 1 1.54 3.43v.06h-3.08a2.92 2.92 0 0 0-.72-1.67 2.3 2.3 0 0 0-1.7-.56 2.21 2.21 0 0 0-1.84.9 3.72 3.72 0 0 0-.7 2.33v3a3.78 3.78 0 0 0 .74 2.34 2.29 2.29 0 0 0 1.92.89 5.41 5.41 0 0 0 1.41-.15 2.27 2.27 0 0 0 .81-.39V48h-2.25v-2.2h5.49z"/>
</svg>
