<svg id="Layer_1" data-name="Layer 1" xmlns="http://www.w3.org/2000/svg" viewBox="0 0 64 64">
  <defs>
    <style>
      .cls-1{fill:#fff;}.cls-2{fill:#dc143c;}.cls-3{fill:gray;}.cls-4{fill:#4d4d4d;}
    </style>
  </defs>
  <circle class="cls-1" cx="32" cy="32" r="32"/>
  <circle class="cls-1" cx="32" cy="32" r="32"/>
  <circle class="cls-2" cx="32" cy="32" r="24"/>
  <path d="M32 1A31 31 0 1 1 1 32 31 31 0 0 1 32 1m0-1a32 32 0 1 0 32 32A32 32 0 0 0 32 0z"/>
  <path class="cls-3" d="M32 2A30 30 0 1 1 2 32 30 30 0 0 1 32 2m0-2a32 32 0 1 0 32 32A32 32 0 0 0 32 0z"/>
  <path class="cls-2" d="M32 12a20 20 0 1 1-20 20 20 20 0 0 1 20-20m0-4a24 24 0 1 0 24 24A24 24 0 0 0 32 8z"/>
  <path class="cls-4" d="M28.43 43.77H23.5V27.4h-4.76v-3.48l9.7-1.49zm18.24-15.63a5 5 0 0 1-.81 2.79 5.54 5.54 0 0 1-2.23 1.93 6.22 6.22 0 0 1 2.55 2.05 5 5 0 0 1 .92 3 5.47 5.47 0 0 1-2.05 4.59 8.48 8.48 0 0 1-5.36 1.6 8.52 8.52 0 0 1-5.38-1.6 5.46 5.46 0 0 1-2.07-4.58 5 5 0 0 1 .92-3 6.22 6.22 0 0 1 2.55-2.05 5.45 5.45 0 0 1-2.25-1.93 5 5 0 0 1-.8-2.79 5.4 5.4 0 0 1 1.93-4.43 7.74 7.74 0 0 1 5.06-1.58 7.76 7.76 0 0 1 5.08 1.58 5.41 5.41 0 0 1 1.94 4.42zm-4.5 9.36a2.82 2.82 0 0 0-.69-2 2.38 2.38 0 0 0-1.82-.73 2.31 2.31 0 0 0-1.79.73 3.37 3.37 0 0 0 0 4 2.57 2.57 0 0 0 3.61 0 2.88 2.88 0 0 0 .7-2zm-.44-9.1a2.8 2.8 0 0 0-.53-1.8 1.85 1.85 0 0 0-1.54-.66 1.81 1.81 0 0 0-1.5.65 2.83 2.83 0 0 0-.52 1.81 3 3 0 0 0 .53 1.86 2 2 0 0 0 3 0 3 3 0 0 0 .57-1.86z"/>
  <path class="cls-1" d="M27.43 42.77H22.5V26.4h-4.76v-3.48l9.7-1.49zm18.24-15.63a5 5 0 0 1-.81 2.79 5.54 5.54 0 0 1-2.23 1.93 6.22 6.22 0 0 1 2.55 2.05 5 5 0 0 1 .92 3 5.47 5.47 0 0 1-2.05 4.59 8.48 8.48 0 0 1-5.36 1.6 8.52 8.52 0 0 1-5.38-1.6 5.46 5.46 0 0 1-2.07-4.58 5 5 0 0 1 .92-3 6.22 6.22 0 0 1 2.55-2.05 5.45 5.45 0 0 1-2.25-1.93 5 5 0 0 1-.8-2.79 5.4 5.4 0 0 1 1.93-4.43 7.74 7.74 0 0 1 5.06-1.58 7.76 7.76 0 0 1 5.08 1.58 5.41 5.41 0 0 1 1.94 4.42zm-4.5 9.36a2.82 2.82 0 0 0-.69-2 2.38 2.38 0 0 0-1.82-.73 2.31 2.31 0 0 0-1.79.73 3.37 3.37 0 0 0 0 4 2.57 2.57 0 0 0 3.61 0 2.88 2.88 0 0 0 .7-2zm-.44-9.1a2.8 2.8 0 0 0-.53-1.8 1.85 1.85 0 0 0-1.54-.66 1.81 1.81 0 0 0-1.5.65 2.83 2.83 0 0 0-.52 1.81 3 3 0 0 0 .53 1.86 2 2 0 0 0 3 0 3 3 0 0 0 .57-1.86z"/>
</svg>
