<svg id="Layer_1" data-name="Layer 1" xmlns="http://www.w3.org/2000/svg" viewBox="0 0 64 64">
  <defs>
    <style>
      .cls-1{fill:#fff;}.cls-2{fill:gray;}.cls-3{fill:#009245;}.cls-4{fill:#4d4d4d;}
    </style>
  </defs>
  <path class="cls-1" d="M32 12L0 64h64L32 12z"/>
  <path class="cls-2" d="M32 15.82L60.42 62H3.58L32 15.82M32 12L0 64h64L32 12z"/>
  <path class="cls-3" d="M10.74 58L32 23.45 53.26 58H10.74z"/>
  <path class="cls-4" d="M39.62 40v9.32A4.62 4.62 0 0 1 38 53.13a6.42 6.42 0 0 1-4.23 1.34 6.49 6.49 0 0 1-4.27-1.34 4.61 4.61 0 0 1-1.62-3.77V40h3.31v9.32a2.53 2.53 0 0 0 .67 1.94 2.68 2.68 0 0 0 1.9.63 2.63 2.63 0 0 0 1.88-.62 2.57 2.57 0 0 0 .66-1.94V40z"/>
  <path class="cls-1" d="M37.62 38.55v9.32A4.62 4.62 0 0 1 36 51.63 6.42 6.42 0 0 1 31.77 53a6.49 6.49 0 0 1-4.27-1.34 4.61 4.61 0 0 1-1.62-3.77v-9.34h3.31v9.32a2.53 2.53 0 0 0 .67 1.94 2.68 2.68 0 0 0 1.9.63 2.63 2.63 0 0 0 1.88-.62 2.57 2.57 0 0 0 .66-1.94v-9.33z"/>
</svg>
