<svg id="Layer_1" data-name="Layer 1" xmlns="http://www.w3.org/2000/svg" viewBox="0 0 64 64">
  <defs>
    <style>
      .cls-1{fill:#fff;}.cls-2{fill:tomato;opacity:0.5;}.cls-3{fill:gray;}.cls-4{fill:#dc143c;}.cls-5{fill:#4d4d4d;}
    </style>
  </defs>
  <circle class="cls-1" cx="32" cy="32" r="32"/>
  <circle class="cls-1" cx="32" cy="32" r="32"/>
  <circle class="cls-2" cx="32" cy="32" r="24"/>
  <path d="M32 1A31 31 0 1 1 1 32 31 31 0 0 1 32 1m0-1a32 32 0 1 0 32 32A32 32 0 0 0 32 0z"/>
  <path class="cls-3" d="M32 2A30 30 0 1 1 2 32 30 30 0 0 1 32 2m0-2a32 32 0 1 0 32 32A32 32 0 0 0 32 0z"/>
  <path class="cls-4" d="M32 12a20 20 0 1 1-20 20 20 20 0 0 1 20-20m0-4a24 24 0 1 0 24 24A24 24 0 0 0 32 8z"/>
  <path class="cls-5" d="M27.8 43.32h-4.94V27H18.1v-3.53L27.8 22zm18.34 0H31.21V40.1l6.86-7.21A14.46 14.46 0 0 0 40 30.22a4.53 4.53 0 0 0 .62-2 2.93 2.93 0 0 0-.62-2 2.32 2.32 0 0 0-1.87-.73 2 2 0 0 0-1.75.94 4.23 4.23 0 0 0-.64 2.41h-4.85v-.09a6.66 6.66 0 0 1 1.93-5 7.09 7.09 0 0 1 5.32-2.06 8 8 0 0 1 5.49 1.73 6 6 0 0 1 2 4.73 6.25 6.25 0 0 1-1 3.57 45.41 45.41 0 0 1-3.86 4.61l-2.89 3.09v.09h8.32z"/>
  <path class="cls-4" d="M26.8 42.32h-4.94V26H17.1v-3.53L26.8 21zm18.34 0H30.21V39.1l6.86-7.21A14.46 14.46 0 0 0 39 29.22a4.53 4.53 0 0 0 .62-2 2.93 2.93 0 0 0-.62-2 2.32 2.32 0 0 0-1.87-.73 2 2 0 0 0-1.75.94 4.23 4.23 0 0 0-.64 2.41h-4.85v-.09a6.66 6.66 0 0 1 1.93-5 7.09 7.09 0 0 1 5.32-2.06 8 8 0 0 1 5.49 1.73 6 6 0 0 1 2 4.73 6.25 6.25 0 0 1-1 3.57 45.41 45.41 0 0 1-3.86 4.61l-2.89 3.09v.09h8.32z"/>
</svg>
