<svg id="Layer_1" data-name="Layer 1" xmlns="http://www.w3.org/2000/svg" viewBox="0 0 64 64">
  <defs>
    <style>
      .cls-1{fill:#fff;}.cls-2{fill:tomato;opacity:0.5;}.cls-3{fill:gray;}.cls-4{fill:#dc143c;}.cls-5{fill:#4d4d4d;}
    </style>
  </defs>
  <circle class="cls-1" cx="32" cy="32" r="32"/>
  <circle class="cls-1" cx="32" cy="32" r="32"/>
  <circle class="cls-1" cx="32" cy="32" r="32"/>
  <circle class="cls-2" cx="32" cy="32" r="24"/>
  <path d="M32 1A31 31 0 1 1 1 32 31 31 0 0 1 32 1m0-1a32 32 0 1 0 32 32A32 32 0 0 0 32 0z"/>
  <path class="cls-3" d="M32 2A30 30 0 1 1 2 32 30 30 0 0 1 32 2m0-2a32 32 0 1 0 32 32A32 32 0 0 0 32 0z"/>
  <path class="cls-4" d="M32 12a20 20 0 1 1-20 20 20 20 0 0 1 20-20m0-4a24 24 0 1 0 24 24A24 24 0 0 0 32 8z"/>
  <path class="cls-5" d="M28.24 43.52h-4.93V27.16h-4.76v-3.49l9.7-1.49zm4.27-9.38l1.23-12h12.51V26h-8.48l-.54 4.47a4.52 4.52 0 0 1 1.39-.69 6.72 6.72 0 0 1 1.83-.29 6 6 0 0 1 4.82 1.82A7.74 7.74 0 0 1 47 36.65a7.25 7.25 0 0 1-2 5.09 7.09 7.09 0 0 1-5.49 2.09 8.55 8.55 0 0 1-5.29-1.68 5.12 5.12 0 0 1-2.17-4.45v-.09l4.83-.29a2.71 2.71 0 0 0 .71 2 2.53 2.53 0 0 0 1.88.72 2 2 0 0 0 1.91-.94 4.61 4.61 0 0 0 .56-2.4 5.21 5.21 0 0 0-.63-2.77 2.17 2.17 0 0 0-2-1 2.75 2.75 0 0 0-1.6.42 2.21 2.21 0 0 0-.84 1.07z"/>
  <path class="cls-4" d="M27.24 42.52h-4.93V26.16h-4.76v-3.49l9.7-1.49zm4.27-9.38l1.23-12h12.51V25h-8.48l-.54 4.47a4.52 4.52 0 0 1 1.39-.69 6.72 6.72 0 0 1 1.83-.29 6 6 0 0 1 4.82 1.82A7.74 7.74 0 0 1 46 35.65a7.25 7.25 0 0 1-2 5.09 7.09 7.09 0 0 1-5.49 2.09 8.55 8.55 0 0 1-5.29-1.68 5.12 5.12 0 0 1-2.17-4.45v-.09l4.83-.29a2.71 2.71 0 0 0 .71 2 2.53 2.53 0 0 0 1.88.72 2 2 0 0 0 1.91-.94 4.61 4.61 0 0 0 .56-2.4 5.21 5.21 0 0 0-.63-2.77 2.17 2.17 0 0 0-2-1 2.75 2.75 0 0 0-1.6.42 2.21 2.21 0 0 0-.84 1.07z"/>
</svg>
