<svg id="Layer_1" data-name="Layer 1" xmlns="http://www.w3.org/2000/svg" viewBox="0 0 64 64">
  <defs>
    <style>
      .cls-1{fill:#fff;}.cls-2{fill:#f7931e;}.cls-3{fill:gray;}.cls-4{fill:#4d4d4d;}
    </style>
  </defs>
  <circle class="cls-1" cx="32" cy="32" r="32"/>
  <circle class="cls-1" cx="32" cy="32" r="32"/>
  <circle class="cls-2" cx="32" cy="32" r="24"/>
  <path d="M32 1A31 31 0 1 1 1 32 31 31 0 0 1 32 1m0-1a32 32 0 1 0 32 32A32 32 0 0 0 32 0z"/>
  <path class="cls-3" d="M32 2A30 30 0 1 1 2 32 30 30 0 0 1 32 2m0-2a32 32 0 1 0 32 32A32 32 0 0 0 32 0z"/>
  <path class="cls-4" d="M22.28 41.88H18V27.69h-4.13v-3l8.4-1.29zm15.01 0H24.35v-2.8l5.94-6.25a12.52 12.52 0 0 0 1.71-2.3 3.93 3.93 0 0 0 .53-1.77 2.54 2.54 0 0 0-.54-1.7 2 2 0 0 0-1.62-.63 1.74 1.74 0 0 0-1.52.82 3.66 3.66 0 0 0-.55 2.09h-4.23v-.08a5.78 5.78 0 0 1 1.68-4.35 6.15 6.15 0 0 1 4.61-1.78 7 7 0 0 1 4.75 1.5 5.17 5.17 0 0 1 1.71 4.1 5.41 5.41 0 0 1-.91 3.1 39.16 39.16 0 0 1-3.34 4L30 38.5v.08h7.21z"/>
  <path class="cls-4" d="M47.47 38.28h-5.82l-1 3.59h-4.36l6-18.48h4.61l6 18.48h-4.37zM42.6 35h3.92l-1.93-6.61h-.08z"/>
  <path class="cls-1" d="M20.53 40.13h-4.28V25.94h-4.13v-3l8.4-1.29zm15.01 0H22.6v-2.8l5.94-6.25a12.52 12.52 0 0 0 1.66-2.31 3.93 3.93 0 0 0 .54-1.77 2.54 2.54 0 0 0-.54-1.7 2 2 0 0 0-1.62-.63 1.74 1.74 0 0 0-1.52.82 3.66 3.66 0 0 0-.55 2.09h-4.19v-.08A5.78 5.78 0 0 1 24 23.16a6.15 6.15 0 0 1 4.61-1.78 7 7 0 0 1 4.75 1.5A5.17 5.17 0 0 1 35 27a5.41 5.41 0 0 1-.91 3.1 39.16 39.16 0 0 1-3.34 4l-2.5 2.68v.08h7.21z"/>
  <path class="cls-1" d="M45.72 36.53H39.9l-1 3.59h-4.36l6-18.48h4.61l6 18.48h-4.37zm-4.87-3.3h3.92l-1.93-6.61h-.08z"/>
</svg>
