<svg xmlns="http://www.w3.org/2000/svg" viewBox="0 0 64 64">
  <path d="M32 0C14.3 0 0 14.3 0 32s14.3 32 32 32 32-14.3 32-32S49.7 0 32 0zm13.6 37.2c-.7 2.4-2 4.6-3.9 6.3-1.7 1.6-3.9 2.7-6.2 3.2-2.6.6-5.3.6-7.8-.1-2-.5-3.9-1.5-5.5-2.8-1.7-1.4-3.2-3.1-4.1-5.1-1.5-3-2-6.6-1.3-9.9.3-1.3.7-2.6 1.3-3.8 1.8-3.5 4.9-6.3 8.6-7.6 3.3-1.1 7-1.1 10.3.1 1.8.7 3.5 1.7 4.9 3L40.4 22l-2.8 2.8c-.9-.9-2.1-1.6-3.3-1.9-1.4-.4-3-.5-4.5-.2-1.7.4-3.3 1.3-4.6 2.5-1 1-1.8 2.3-2.2 3.6-.7 1.9-.7 4 0 5.9.6 1.9 1.9 3.5 3.5 4.7 1 .7 2.2 1.2 3.4 1.5 1.2.2 2.4.2 3.6 0 1.2-.2 2.4-.6 3.4-1.3 1.6-1.1 2.7-2.8 3.1-4.7h-8.3v-6h14.4c.3 2.9.2 5.7-.5 8.3z"/>
</svg>
