<svg data-name="Layer 1" xmlns="http://www.w3.org/2000/svg" viewBox="0 0 64 64">
  <title>
    google_icon
  </title>
  <path d="M32 0a32 32 0 1 0 32 32A32 32 0 0 0 32 0zm4 37.21a11.44 11.44 0 0 1-2.44 3.88 10.9 10.9 0 0 1-3.81 2.54 13 13 0 0 1-4.92.9 12.18 12.18 0 0 1-4.88-1 12.67 12.67 0 0 1-6.67-6.67 12.65 12.65 0 0 1 0-9.77A12.67 12.67 0 0 1 20 20.44a12.18 12.18 0 0 1 4.88-1 12 12 0 0 1 4.63.87 12.43 12.43 0 0 1 3.75 2.4L29.85 26a9.44 9.44 0 0 0-2-1.29 6.58 6.58 0 0 0-3-.63 7.24 7.24 0 0 0-3 .63 8.24 8.24 0 0 0-2.46 1.69 8 8 0 0 0 0 11.19 8.24 8.24 0 0 0 2.46 1.69 7.24 7.24 0 0 0 3 .63q3.73 0 5.31-2A8.25 8.25 0 0 0 32 34.5h-7.15v-4.31h11.8a8.58 8.58 0 0 1 .23 2.08 13.66 13.66 0 0 1-.88 4.94zm15.67-3.67H48v3.69h-3.69v-3.69h-3.69v-3.69h3.69v-3.7H48v3.69h3.69z"/>
</svg>
