<svg data-name="Layer 1" xmlns="http://www.w3.org/2000/svg" viewBox="0 0 70 16">
  <title>
    list_logo_placeholder
  </title>
  <path d="M33.73 0v16H70V0zm10.15 14.3h-7V1.7h3v10h4zm4.51 0h-3.06V1.7h3.07zm9.52-1.93a3.2 3.2 0 0 1-.91 1.16 4 4 0 0 1-1.31.72 5.18 5.18 0 0 1-1.64.25 5.71 5.71 0 0 1-1.34-.14 4.07 4.07 0 0 1-1.1-.43 4.59 4.59 0 0 1-.92-.69 8.21 8.21 0 0 1-.82-.93L52 10.45a7.06 7.06 0 0 0 1.16 1.14 1.71 1.71 0 0 0 1 .39 1.22 1.22 0 0 0 .78-.24.91.91 0 0 0 .31-.76 2 2 0 0 0-.05-.49 1.08 1.08 0 0 0-.23-.42 2.22 2.22 0 0 0-.49-.41 5.89 5.89 0 0 0-.86-.44A13.44 13.44 0 0 1 52 8.39a4.52 4.52 0 0 1-1.07-.87 2.91 2.91 0 0 1-.59-1 4.28 4.28 0 0 1-.18-1.3 3.76 3.76 0 0 1 .27-1.44 3.39 3.39 0 0 1 .78-1.16 3.67 3.67 0 0 1 1.24-.78 4.47 4.47 0 0 1 1.65-.34 6.07 6.07 0 0 1 1.3.13 3.74 3.74 0 0 1 1 .39 4.62 4.62 0 0 1 .86.63 8.56 8.56 0 0 1 .8.86L56 5.37l-.56-.64a3.22 3.22 0 0 0-.44-.42 1.37 1.37 0 0 0-.45-.22A2 2 0 0 0 54 4a.84.84 0 0 0-.67.27.92.92 0 0 0-.24.63 1.31 1.31 0 0 0 .07.45 1.13 1.13 0 0 0 .25.39 2.26 2.26 0 0 0 .49.37 8.09 8.09 0 0 0 .8.4 11.6 11.6 0 0 1 1.63.84 4.6 4.6 0 0 1 1.08.93A3.27 3.27 0 0 1 58 9.39a4.61 4.61 0 0 1 .19 1.4 3.82 3.82 0 0 1-.28 1.58zm9.25-8h-2.57v10h-3v-10H59V1.7h8.18zM8.61 3.43H5.49V14.3H3.12V3.43H0V1.7h8.61zM19.58 14.3H17.2V8.47h-4.74v5.83h-2.37V1.7h2.37v5h4.74v-5h2.37zM30.22 14.3H22V1.7h8v1.71h-5.68v3.37H28v1.69h-3.68v4.12h5.9z"/>
</svg>
