<svg data-name="Layer 1" xmlns="http://www.w3.org/2000/svg" viewBox="0 0 64 64">
  <path d="M32 0a32 32 0 1 0 32 32A32 32 0 0 0 32 0zm3.66 41A5.5 5.5 0 0 1 31 38.6s-1.13 4.4-1.37 5.27a20.46 20.46 0 0 1-3.46 6.28.25.25 0 0 1-.46-.11 21.51 21.51 0 0 1 .06-7.29l2.47-10.45a7.38 7.38 0 0 1-.61-3c0-2.84 1.65-5 3.7-5 1.74 0 2.59 1.31 2.59 2.88 0 1.75-1.12 4.38-1.69 6.8a3 3 0 0 0 3 3.69c3.63 0 6.08-4.67 6.08-10.2 0-4.2-2.83-7.35-8-7.35a9.08 9.08 0 0 0-9.44 9.18 5.53 5.53 0 0 0 1.27 3.76.93.93 0 0 1 .28 1.07c-.09.35-.3 1.2-.39 1.54a.66.66 0 0 1-1 .48c-2.68-1.09-3.93-4-3.93-7.33 0-5.45 4.59-12 13.7-12 7.32 0 12.14 5.3 12.14 11C46 35.37 41.83 41 35.66 41z"/>
</svg>
