<svg id="Layer_1" data-name="Layer 1" xmlns="http://www.w3.org/2000/svg" viewBox="0 0 64 64">
  <defs>
    <style>
      .cls-1{fill:none;}
    </style>
  </defs>
  <path class="cls-1" d="M54.84 20H9.16A10 10 0 0 1 4 25.16v13.68A10 10 0 0 1 9.16 44h45.68A10 10 0 0 1 60 38.84V25.16A10 10 0 0 1 54.84 20z"/>
  <path d="M37 29h4v6h-4z"/>
  <path d="M60 20.46A6 6 0 0 1 58 16H6a6 6 0 0 1-1.54 4 6 6 0 0 1-.46.46A6 6 0 0 1 0 22v20a6 6 0 0 1 4 1.54 6 6 0 0 1 .46.46A6 6 0 0 1 6 48h52a6 6 0 0 1 6-6V22a6 6 0 0 1-4-1.54zm0 18.37A10 10 0 0 0 54.84 44H41v-5h-4v5H9.16A10 10 0 0 0 4 38.84V25.16A10 10 0 0 0 9.16 20H37v5h4v-5h13.84A10 10 0 0 0 60 25.16z"/>
  <path d="M10 26h22v4H10zm0 8h22v4H10zm42.63-.97L56 30.51h-4.31L50 26l-1.69 4.51H44l3.37 2.52L45.51 38 50 34.98v.01l.01-.01L54.49 38l-1.86-4.97z"/>
</svg>
