<svg data-name="Layer 1" xmlns="http://www.w3.org/2000/svg" viewBox="0 0 64 64">
  <title>
    twitter_icon
  </title>
  <path d="M32 0a32 32 0 1 0 32 32A32 32 0 0 0 32 0zm14.52 23.92a12.64 12.64 0 0 1-1.8 1.55v.84a19 19 0 0 1-1.22 6.58 18.52 18.52 0 0 1-9.42 10.41 18 18 0 0 1-8 1.7 18.1 18.1 0 0 1-2.72-.2 19.39 19.39 0 0 1-2.61-.58 18.27 18.27 0 0 1-2.45-.92 19.91 19.91 0 0 1-2.3-1.24l.77.06h.8a12.84 12.84 0 0 0 4.43-.71 13.61 13.61 0 0 0 3.77-2.06 6.63 6.63 0 0 1-6.12-4.56l.61.06a5.92 5.92 0 0 0 .61 0 8.51 8.51 0 0 0 .91 0 4.55 4.55 0 0 0 .84-.17 6.58 6.58 0 0 1-5.28-6.44v-.09a6.37 6.37 0 0 0 1.42.59 6.56 6.56 0 0 0 1.55.25 6.83 6.83 0 0 1-2.11-2.34 6.34 6.34 0 0 1-.8-3.12 6.51 6.51 0 0 1 .23-1.75 6.9 6.9 0 0 1 .64-1.56 18.63 18.63 0 0 0 2.72 2.72 18.7 18.7 0 0 0 6.86 3.53 17.86 17.86 0 0 0 4 .63q-.06-.37-.11-.75a6 6 0 0 1 0-.75 6.36 6.36 0 0 1 .37-2.6 6.58 6.58 0 0 1 3.5-3.48 6.55 6.55 0 0 1 5.2 0 6.55 6.55 0 0 1 2.13 1.5 12.69 12.69 0 0 0 2.17-.62 14.31 14.31 0 0 0 2-1A6.57 6.57 0 0 1 46 21.56a6.26 6.26 0 0 1-1.78 1.53 11.19 11.19 0 0 0 2-.36 12 12 0 0 0 1.78-.67 12.8 12.8 0 0 1-1.48 1.86z"/>
</svg>
