<svg data-name="Layer 1" xmlns="http://www.w3.org/2000/svg" viewBox="0 0 64 64">
  <title>
    youtube_icon
  </title>
  <path d="M28.43 36.48l9.33-4.85-9.33-4.85v9.7"/>
  <path d="M32 0a32 32 0 1 0 32 32A32 32 0 0 0 32 0zm17.23 33.31q0 2.09-.34 5.55a7.67 7.67 0 0 1-1.38 3.43 3.72 3.72 0 0 1-2 1.23 13.51 13.51 0 0 1-1.48.22q-1.82.14-3.94.2l-3.92.12q-1.8.05-4.22.05L27.17 44q-1.94 0-3.89-.1t-3-.17l-1.7-.27a3.62 3.62 0 0 1-2.1-1.21 7.66 7.66 0 0 1-1.38-3.43q-.34-3.47-.34-5.55v-2.58q0-2.09.34-5.59a7.6 7.6 0 0 1 1.38-3.4 3.71 3.71 0 0 1 2-1.23q1-.19 1.5-.25 1.78-.14 3.9-.2l3.92-.1h8.44l3.92.1q2.12.07 3.9.2.5.07 1.5.25a3.72 3.72 0 0 1 2 1.23 7.62 7.62 0 0 1 1.38 3.4q.34 3.5.34 5.59z"/>
</svg>
